{
	"asset":{
		"generator":"Khronos glTF Blender I/O v4.3.47",
		"version":"2.0"
	},
	"scene":0,
	"scenes":[
		{
			"name":"Scene",
			"nodes":[
				2
			]
		}
	],
	"nodes":[
		{
			"mesh":0,
			"name":"WrenchMouth"
		},
		{
			"mesh":1,
			"name":"WrenchWheel"
		},
		{
			"children":[
				0,
				1
			],
			"mesh":2,
			"name":"Wrench",
			"translation":[
				0,
				-0.02237708494067192,
				0
			]
		}
	],
	"animations":[
		{
			"channels":[
				{
					"sampler":0,
					"target":{
						"node":2,
						"path":"translation"
					}
				}
			],
			"name":"WrenchHandleAction",
			"samplers":[
				{
					"input":12,
					"interpolation":"LINEAR",
					"output":13
				}
			]
		}
	],
	"materials":[
		{
			"doubleSided":true,
			"name":"Wrench",
			"normalTexture":{
				"index":0
			},
			"pbrMetallicRoughness":{
				"baseColorTexture":{
					"index":1
				},
				"metallicFactor":0.6409090757369995,
				"roughnessFactor":0.8681818246841431
			}
		}
	],
	"meshes":[
		{
			"name":"Cube.478",
			"primitives":[
				{
					"attributes":{
						"POSITION":0,
						"NORMAL":1,
						"TEXCOORD_0":2
					},
					"indices":3,
					"material":0
				}
			]
		},
		{
			"name":"Cylinder.004",
			"primitives":[
				{
					"attributes":{
						"POSITION":4,
						"NORMAL":5,
						"TEXCOORD_0":6
					},
					"indices":7,
					"material":0
				}
			]
		},
		{
			"name":"Cube",
			"primitives":[
				{
					"attributes":{
						"POSITION":8,
						"NORMAL":9,
						"TEXCOORD_0":10
					},
					"indices":11,
					"material":0
				}
			]
		}
	],
	"textures":[
		{
			"sampler":0,
			"source":0
		},
		{
			"sampler":0,
			"source":1
		}
	],
	"images":[
		{
			"mimeType":"image/png",
			"name":"wrenchNormal",
			"uri":"wrenchNormal.png"
		},
		{
			"mimeType":"image/png",
			"name":"wrench",
			"uri":"wrench.png"
		}
	],
	"accessors":[
		{
			"bufferView":0,
			"componentType":5126,
			"count":1686,
			"max":[
				0.024532979354262352,
				0.45711344480514526,
				0.03591863065958023
			],
			"min":[
				-0.024532979354262352,
				-0.0035469383001327515,
				-0.12559355795383453
			],
			"type":"VEC3"
		},
		{
			"bufferView":1,
			"componentType":5126,
			"count":1686,
			"type":"VEC3"
		},
		{
			"bufferView":2,
			"componentType":5126,
			"count":1686,
			"type":"VEC2"
		},
		{
			"bufferView":3,
			"componentType":5123,
			"count":3408,
			"type":"SCALAR"
		},
		{
			"bufferView":4,
			"componentType":5126,
			"count":260,
			"max":[
				0.03742920979857445,
				0.18769937753677368,
				-0.04868102818727493
			],
			"min":[
				-0.03777671977877617,
				0.13800661265850067,
				-0.12388694286346436
			],
			"type":"VEC3"
		},
		{
			"bufferView":5,
			"componentType":5126,
			"count":260,
			"type":"VEC3"
		},
		{
			"bufferView":6,
			"componentType":5126,
			"count":260,
			"type":"VEC2"
		},
		{
			"bufferView":7,
			"componentType":5123,
			"count":402,
			"type":"SCALAR"
		},
		{
			"bufferView":8,
			"componentType":5126,
			"count":1864,
			"max":[
				0.03144705668091774,
				0.3470488488674164,
				0.04166752099990845
			],
			"min":[
				-0.031457122415304184,
				-0.40285956859588623,
				-0.1719571202993393
			],
			"type":"VEC3"
		},
		{
			"bufferView":9,
			"componentType":5126,
			"count":1864,
			"type":"VEC3"
		},
		{
			"bufferView":10,
			"componentType":5126,
			"count":1864,
			"type":"VEC2"
		},
		{
			"bufferView":11,
			"componentType":5123,
			"count":3948,
			"type":"SCALAR"
		},
		{
			"bufferView":12,
			"componentType":5126,
			"count":20,
			"max":[
				0.8333333333333334
			],
			"min":[
				0.041666666666666664
			],
			"type":"SCALAR"
		},
		{
			"bufferView":13,
			"componentType":5126,
			"count":20,
			"type":"VEC3"
		}
	],
	"bufferViews":[
		{
			"buffer":0,
			"byteLength":20232,
			"byteOffset":0,
			"target":34962
		},
		{
			"buffer":0,
			"byteLength":20232,
			"byteOffset":20232,
			"target":34962
		},
		{
			"buffer":0,
			"byteLength":13488,
			"byteOffset":40464,
			"target":34962
		},
		{
			"buffer":0,
			"byteLength":6816,
			"byteOffset":53952,
			"target":34963
		},
		{
			"buffer":0,
			"byteLength":3120,
			"byteOffset":60768,
			"target":34962
		},
		{
			"buffer":0,
			"byteLength":3120,
			"byteOffset":63888,
			"target":34962
		},
		{
			"buffer":0,
			"byteLength":2080,
			"byteOffset":67008,
			"target":34962
		},
		{
			"buffer":0,
			"byteLength":804,
			"byteOffset":69088,
			"target":34963
		},
		{
			"buffer":0,
			"byteLength":22368,
			"byteOffset":69892,
			"target":34962
		},
		{
			"buffer":0,
			"byteLength":22368,
			"byteOffset":92260,
			"target":34962
		},
		{
			"buffer":0,
			"byteLength":14912,
			"byteOffset":114628,
			"target":34962
		},
		{
			"buffer":0,
			"byteLength":7896,
			"byteOffset":129540,
			"target":34963
		},
		{
			"buffer":0,
			"byteLength":80,
			"byteOffset":137436
		},
		{
			"buffer":0,
			"byteLength":240,
			"byteOffset":137516
		}
	],
	"samplers":[
		{
			"magFilter":9728,
			"minFilter":9984
		}
	],
	"buffers":[
		{
			"byteLength":137756,
			"uri":"wrench.bin"
		}
	]
}
